<svg width="72" height="24" viewBox="0 0 72 24" fill="none" xmlns="http://www.w3.org/2000/svg">
<g clip-path="url(#clip0_5037_16430)">
<path d="M20.6696 0.413386L15.2956 16.9376L14.2788 12.2898C12.736 8.26744 10.0089 4.80794 6.45801 2.36858L11.6086 23.5965H17.8093L26.4904 0.446902H20.6696V0.413386ZM66.9575 0.413386H60.7567L51.2489 23.5518H57.0363L58.2764 20.2H65.7174L66.5441 23.5518H71.5047L66.9575 0.413386ZM59.5166 16.1109L62.8683 7.44094L64.5219 16.1109H59.5166ZM42.9812 7.01638C42.9812 5.7874 43.808 4.53606 46.7016 4.53606C48.2098 4.67885 49.6449 5.2529 50.8355 6.18961L52.0756 1.24015C50.3675 0.525359 48.5503 0.106006 46.7016 0C40.5008 0 37.6072 3.35178 37.6072 7.02755C37.6072 14.4573 45.8748 13.2283 45.8748 16.9376C45.8748 17.7644 45.4615 19.0046 42.1544 19.0046C40.1595 19.0022 38.1876 18.5797 36.367 17.7644L35.5402 22.725C37.472 23.6472 39.6031 24.0734 41.741 23.9652C45.4615 24.3786 51.2489 21.0715 51.2489 16.1444C51.2489 10.3234 42.9812 9.92128 42.9812 7.01638Z" fill="#1565C0"/>
<path d="M25.6299 23.9651H31.4173L35.1378 0.82666H28.937L25.6299 23.9651Z" fill="#1565C0"/>
<path d="M14.5243 13.217L12.4016 2.89354C12.1078 2.25781 11.6331 1.72274 11.037 1.35514C10.441 0.987541 9.74976 0.803717 9.04976 0.826613H0C0 0.826613 11.9882 4.54708 14.5243 13.217Z" fill="#FF9800"/>
</g>
<defs>
<clipPath id="clip0_5037_16430">
<rect width="72" height="24" fill="white"/>
</clipPath>
</defs>
</svg>
